<?xml version="1.0" encoding="utf-8"?>
<!-- Generator: Adobe Illustrator 16.0.0, SVG Export Plug-In . SVG Version: 6.00 Build 0)  -->
<!DOCTYPE svg PUBLIC "-//W3C//DTD SVG 1.1//EN" "http://www.w3.org/Graphics/SVG/1.1/DTD/svg11.dtd">
<svg version="1.1" xmlns="http://www.w3.org/2000/svg" xmlns:xlink="http://www.w3.org/1999/xlink" x="0px" y="0px"
	 width="403.334px" height="309.333px" viewBox="0 0 403.334 309.333" enable-background="new 0 0 403.334 309.333"
	 xml:space="preserve">
<g id="Layer_1">
</g>
<g id="Mobile">
	<g id="_x35_s">
		<path fill="#808285" d="M217.351,16.648h-68.31c-12.822,0-23.216,10.394-23.216,23.216V55.31h-1.378v12.927h1.378v6.403h-1.378
			v12.928h1.378v6.35h-1.378v12.928h1.378V284.4c0,12.821,10.394,23.216,23.216,23.216h91.296c12.822,0,23.216-10.395,23.216-23.216
			V39.864c0-12.822-10.394-23.216-23.216-23.216h-2.533v-1.067c0-0.458-0.37-0.829-0.829-0.829h-18.794
			c-0.459,0-0.83,0.372-0.83,0.829V16.648z"/>
		<path fill="#FFFFFF" d="M134.763,55.31h119.853c0.458,0,0.829,0.372,0.829,0.829v210.787c0,0.458-0.371,0.829-0.829,0.829H134.763
			c-0.458,0-0.829-0.371-0.829-0.829V56.139C133.934,55.681,134.305,55.31,134.763,55.31z"/>
		
			<circle fill="none" stroke="#D3D1D5" stroke-width="1.6583" stroke-linecap="round" stroke-linejoin="round" cx="194.689" cy="288.025" r="12.809"/>
		<path fill="#C5C3C7" d="M182.683,40.571h21.152c1.169,0,2.115,0.947,2.115,2.115c0,1.168-0.946,2.116-2.115,2.116h-21.152
			c-1.168,0-2.115-0.947-2.115-2.116C180.567,41.518,181.515,40.571,182.683,40.571z"/>
		<circle fill="#C5C3C7" cx="192.874" cy="30.316" r="3.76"/>
		<circle fill="#C9C8CB" cx="175.245" cy="42.686" r="2.115"/>
	</g>
</g>
<g id="gluconamics_content">
	<g>
		<circle fill="none" stroke="#1E1F22" stroke-width="0.9365" stroke-miterlimit="10" cx="147.273" cy="68.896" r="6.01"/>
		<path fill="#1D76BB" d="M150.808,72.631v-2.405c-0.205-0.029-0.404-0.096-0.583-0.222c-0.257-0.18-0.483-0.413-0.663-0.719
			c-0.355-0.606-0.579-1.298-0.8-1.992c-0.092-0.297-0.174-0.6-0.274-0.893c-0.178-0.514-0.357-1.026-0.548-1.531
			c-0.09-0.239-0.196-0.468-0.364-0.644c-0.166-0.177-0.363-0.117-0.5,0.04c-0.14,0.162-0.242,0.363-0.319,0.579
			c-0.166,0.467-0.325,0.938-0.48,1.411c-0.116,0.352-0.213,0.712-0.334,1.059c-0.15,0.436-0.313,0.866-0.479,1.292
			c-0.143,0.368-0.321,0.71-0.549,0.998c-0.157,0.201-0.34,0.362-0.561,0.459c-0.202,0.088-0.402,0.163-0.614,0.185v2.406
			c0.212-0.024,0.412-0.097,0.614-0.187c0.221-0.096,0.403-0.257,0.561-0.458c0.228-0.288,0.406-0.631,0.549-0.998
			c0.166-0.426,0.329-0.856,0.479-1.291c0.121-0.348,0.218-0.71,0.334-1.061c0.155-0.473,0.314-0.944,0.48-1.41
			c0.077-0.217,0.18-0.418,0.319-0.58c0.137-0.157,0.334-0.217,0.5-0.04c0.168,0.177,0.274,0.405,0.364,0.644
			c0.19,0.505,0.37,1.018,0.548,1.532c0.101,0.293,0.183,0.595,0.274,0.892c0.221,0.694,0.444,1.385,0.8,1.993
			c0.18,0.305,0.406,0.538,0.663,0.718C150.403,72.535,150.603,72.603,150.808,72.631z"/>
	</g>
	<g>
		<path fill="#1E1F22" d="M162.739,72.367c-0.267,0.315-0.69,0.605-1.27,0.872s-1.269,0.4-2.068,0.4
			c-0.97,0-1.728-0.384-2.271-1.151s-0.696-1.741-0.456-2.921l0.348-1.75c0.254-1.259,0.76-2.24,1.518-2.944
			c0.759-0.704,1.649-1.056,2.672-1.056c0.892,0,1.572,0.261,2.043,0.784c0.47,0.522,0.667,1.186,0.593,1.99l-0.02,0.04h-0.708
			c0.021-0.638-0.122-1.155-0.433-1.551s-0.846-0.593-1.606-0.593c-0.734,0-1.421,0.315-2.059,0.947
			c-0.639,0.631-1.049,1.42-1.232,2.368l-0.354,1.762c-0.214,1.062-0.128,1.895,0.259,2.5s1,0.907,1.84,0.907
			c0.537,0,1.04-0.089,1.508-0.268s0.795-0.371,0.983-0.576l0.498-2.487h-2.334l0.131-0.669h3.095L162.739,72.367z"/>
		<path fill="#1E1F22" d="M165.669,72.832h4.38l-0.131,0.669h-5.141l1.908-9.546h0.761L165.669,72.832z"/>
		<path fill="#1E1F22" d="M179.209,63.955l-1.292,6.471c-0.223,1.11-0.677,1.923-1.36,2.439c-0.685,0.516-1.516,0.774-2.495,0.774
			c-0.883,0-1.576-0.28-2.078-0.839c-0.503-0.56-0.649-1.351-0.439-2.374l1.292-6.471h0.76l-1.291,6.467
			c-0.175,0.869-0.087,1.511,0.266,1.926c0.352,0.415,0.893,0.622,1.622,0.622c0.687,0,1.313-0.224,1.879-0.671
			s0.93-1.073,1.092-1.877l1.291-6.467H179.209z"/>
		<path fill="#1E1F22" d="M186.225,70.577l0.013,0.04c-0.271,0.97-0.704,1.717-1.301,2.239c-0.597,0.522-1.356,0.784-2.278,0.784
			c-0.94,0-1.684-0.397-2.229-1.193c-0.547-0.795-0.699-1.783-0.459-2.963l0.308-1.561c0.263-1.307,0.732-2.318,1.41-3.033
			c0.678-0.714,1.512-1.072,2.505-1.072c0.896,0,1.612,0.282,2.15,0.846c0.537,0.564,0.747,1.32,0.629,2.269l-0.013,0.033h-0.722
			c0.065-0.778-0.087-1.385-0.459-1.823c-0.371-0.437-0.936-0.655-1.691-0.655c-0.708,0-1.343,0.319-1.904,0.957
			s-0.943,1.458-1.145,2.463l-0.314,1.572c-0.219,1.07-0.134,1.919,0.256,2.548c0.389,0.629,0.981,0.943,1.776,0.943
			c0.687,0,1.255-0.196,1.705-0.588c0.45-0.392,0.802-0.994,1.056-1.805H186.225z"/>
		<path fill="#1E1F22" d="M194.879,69.541c-0.271,1.329-0.754,2.344-1.449,3.045c-0.694,0.702-1.575,1.052-2.642,1.052
			c-0.988,0-1.763-0.395-2.324-1.184c-0.563-0.789-0.721-1.78-0.476-2.973l0.308-1.561c0.267-1.325,0.742-2.34,1.427-3.045
			c0.684-0.706,1.548-1.059,2.593-1.059c1.001,0,1.79,0.396,2.367,1.19s0.745,1.785,0.505,2.974L194.879,69.541z M194.439,67.973
			c0.215-1.082,0.112-1.93-0.305-2.544c-0.417-0.615-1.069-0.923-1.957-0.923c-0.765,0-1.425,0.311-1.98,0.933
			c-0.555,0.622-0.933,1.447-1.134,2.476l-0.314,1.576c-0.224,1.09-0.133,1.943,0.271,2.558c0.404,0.615,1.039,0.922,1.905,0.922
			c0.786,0,1.464-0.31,2.032-0.929c0.568-0.619,0.957-1.45,1.167-2.492L194.439,67.973z"/>
		<path fill="#1E1F22" d="M202.615,73.501h-0.76l-3.357-8.163h-0.039l-1.633,8.163h-0.761l1.908-9.546h0.761l3.356,8.15h0.04
			l1.632-8.15h0.761L202.615,73.501z"/>
		<path fill="#1E1F22" d="M210.425,70.839h-4.039l-1.449,2.662h-0.78l5.285-9.546h0.708l1.442,9.546h-0.787L210.425,70.839z
			 M206.766,70.138h3.561l-0.734-5.121l-0.039-0.006L206.766,70.138z"/>
		<path fill="#1E1F22" d="M215.913,63.955l1.547,8.399l0.039,0.007l4.931-8.406h0.997l-1.908,9.546h-0.754l0.846-4.216l0.885-4.131
			l-0.039-0.013l-4.938,8.36h-0.524l-1.6-8.32h-0.039l-0.748,4.104l-0.846,4.216h-0.754l1.908-9.546H215.913z"/>
		<path fill="#1E1F22" d="M224.816,73.501h-0.76l1.907-9.546h0.761L224.816,73.501z"/>
		<path fill="#1E1F22" d="M234.062,70.577l0.013,0.04c-0.271,0.97-0.704,1.717-1.301,2.239c-0.597,0.522-1.356,0.784-2.278,0.784
			c-0.94,0-1.684-0.397-2.229-1.193c-0.547-0.795-0.699-1.783-0.459-2.963l0.308-1.561c0.263-1.307,0.732-2.318,1.41-3.033
			c0.678-0.714,1.512-1.072,2.505-1.072c0.896,0,1.612,0.282,2.15,0.846c0.537,0.564,0.747,1.32,0.629,2.269l-0.013,0.033h-0.722
			c0.065-0.778-0.087-1.385-0.459-1.823c-0.371-0.437-0.936-0.655-1.691-0.655c-0.708,0-1.343,0.319-1.904,0.957
			s-0.943,1.458-1.145,2.463l-0.314,1.572c-0.219,1.07-0.134,1.919,0.256,2.548c0.389,0.629,0.981,0.943,1.776,0.943
			c0.687,0,1.255-0.196,1.705-0.588c0.45-0.392,0.802-0.994,1.056-1.805H234.062z"/>
		<path fill="#1E1F22" d="M240.979,71.418c0.118-0.584,0.034-1.039-0.253-1.361c-0.286-0.323-0.864-0.652-1.733-0.988
			c-0.927-0.336-1.589-0.719-1.987-1.147c-0.397-0.428-0.514-1.051-0.348-1.869c0.145-0.717,0.5-1.269,1.065-1.656
			c0.566-0.387,1.247-0.58,2.043-0.58c0.874,0,1.557,0.257,2.049,0.771s0.642,1.208,0.449,2.082l-0.014,0.033h-0.714
			c0.135-0.673,0.029-1.21-0.318-1.613c-0.348-0.402-0.875-0.603-1.583-0.603c-0.542,0-1.026,0.154-1.453,0.463
			c-0.426,0.31-0.681,0.674-0.764,1.096c-0.122,0.596-0.051,1.053,0.213,1.368c0.265,0.316,0.843,0.645,1.734,0.987
			c0.927,0.34,1.595,0.73,2.003,1.171c0.409,0.44,0.535,1.055,0.377,1.844c-0.148,0.737-0.52,1.292-1.114,1.665
			c-0.595,0.373-1.317,0.559-2.17,0.559c-0.865,0-1.593-0.231-2.181-0.695s-0.774-1.178-0.561-2.144l0.021-0.04h0.701
			c-0.166,0.824-0.027,1.398,0.416,1.723s1.021,0.487,1.734,0.487c0.56,0,1.075-0.151,1.548-0.455
			C240.611,72.212,240.891,71.846,240.979,71.418z"/>
	</g>
	<g>
		<path fill="none" stroke="#1E1F22" stroke-width="2" stroke-miterlimit="10" d="M48.313,247.762
			c-0.223-27.636,33.036-36.935,61.702-37.167"/>
		<polygon fill="#1E1F22" points="118.859,210.738 101.121,204.304 101.173,210.667 101.225,217.029 		"/>
	</g>
	<g>
		<path d="M277.565,243.13l0.27,0.9h0.055l0.27-0.9l4.055-11.226h1.205l-5.037,13.508h-1.049l-5.037-13.508h1.207L277.565,243.13z"
			/>
		<path d="M284.134,240.246c0-1.479,0.406-2.691,1.217-3.637c0.811-0.947,1.883-1.42,3.219-1.42c1.342,0,2.418,0.473,3.229,1.42
			c0.811,0.945,1.215,2.158,1.215,3.637v0.306c0,1.484-0.402,2.698-1.211,3.642c-0.807,0.943-1.879,1.414-3.215,1.414
			c-1.348,0-2.426-0.471-3.236-1.414s-1.217-2.157-1.217-3.642V240.246z M285.247,240.546c0,1.162,0.295,2.138,0.883,2.929
			c0.588,0.79,1.406,1.187,2.457,1.187c1.033,0,1.846-0.396,2.436-1.187c0.592-0.791,0.887-1.767,0.887-2.929v-0.306
			c0-1.144-0.297-2.112-0.891-2.91c-0.594-0.797-1.41-1.195-2.449-1.195s-1.852,0.398-2.439,1.195
			c-0.588,0.798-0.883,1.767-0.883,2.91V240.546z"/>
		<path d="M299.952,236.33l-0.826-0.055c-0.697,0-1.271,0.195-1.721,0.589c-0.447,0.393-0.768,0.933-0.959,1.618v6.931h-1.113
			v-10.038h0.973l0.141,1.67v0.111c0.291-0.618,0.68-1.101,1.168-1.447c0.488-0.346,1.07-0.52,1.744-0.52
			c0.143,0,0.279,0.011,0.414,0.032c0.133,0.022,0.242,0.046,0.328,0.069L299.952,236.33z"/>
		<path d="M302.911,237.091c0.334-0.6,0.779-1.067,1.336-1.401s1.207-0.501,1.949-0.501c1.057,0,1.869,0.328,2.436,0.983
			c0.564,0.655,0.848,1.673,0.848,3.052v6.188h-1.113v-6.22c0-1.09-0.215-1.872-0.645-2.347c-0.43-0.474-1.021-0.711-1.775-0.711
			c-0.762,0-1.396,0.2-1.908,0.6c-0.51,0.399-0.885,0.931-1.127,1.595v7.083h-1.113V230.94h1.113V237.091z"/>
		<path d="M316.142,245.607c-1.256,0-2.301-0.463-3.131-1.391c-0.832-0.928-1.248-2.104-1.248-3.525v-0.511
			c0-1.435,0.412-2.626,1.238-3.571c0.826-0.947,1.826-1.42,3.002-1.42c1.23,0,2.197,0.39,2.902,1.169s1.059,1.818,1.059,3.117
			v0.946h-7.088v0.269c0,1.13,0.299,2.073,0.9,2.833c0.6,0.759,1.387,1.139,2.365,1.139c0.691,0,1.283-0.096,1.771-0.288
			c0.488-0.191,0.906-0.467,1.252-0.825l0.475,0.76c-0.379,0.398-0.855,0.714-1.434,0.947
			C317.626,245.49,316.938,245.607,316.142,245.607z M316.003,236.135c-0.824,0-1.514,0.313-2.07,0.938
			c-0.557,0.627-0.881,1.412-0.973,2.355l0.018,0.046h5.883v-0.278c0-0.869-0.258-1.597-0.771-2.183S316.88,236.135,316.003,236.135
			z"/>
		<path d="M326.782,236.33l-0.826-0.055c-0.697,0-1.271,0.195-1.721,0.589c-0.447,0.393-0.768,0.933-0.959,1.618v6.931h-1.113
			v-10.038h0.973l0.141,1.67v0.111c0.291-0.618,0.68-1.101,1.168-1.447c0.488-0.346,1.07-0.52,1.744-0.52
			c0.143,0,0.279,0.011,0.414,0.032c0.133,0.022,0.242,0.046,0.328,0.069L326.782,236.33z"/>
		<path d="M334.64,242.857c0-0.469-0.193-0.88-0.58-1.231s-1.084-0.639-2.092-0.86c-1.199-0.26-2.086-0.604-2.658-1.03
			s-0.857-1.03-0.857-1.81c0-0.766,0.322-1.414,0.969-1.943c0.646-0.528,1.502-0.793,2.566-0.793c1.131,0,2.027,0.279,2.689,0.84
			c0.662,0.56,0.979,1.26,0.947,2.102l-0.02,0.055h-1.029c0-0.55-0.234-1.029-0.701-1.438s-1.096-0.612-1.887-0.612
			c-0.811,0-1.418,0.174-1.824,0.521c-0.404,0.348-0.607,0.755-0.607,1.224c0,0.461,0.176,0.843,0.525,1.145
			c0.348,0.301,1.047,0.566,2.092,0.793c1.193,0.268,2.088,0.632,2.682,1.094c0.594,0.463,0.891,1.091,0.891,1.885
			c0,0.838-0.34,1.516-1.018,2.033c-0.676,0.519-1.572,0.777-2.686,0.777c-1.219,0-2.176-0.29-2.871-0.871
			c-0.695-0.582-1.025-1.274-0.988-2.078l0.02-0.057h1.02c0.043,0.721,0.34,1.244,0.887,1.57s1.191,0.49,1.934,0.49
			c0.805,0,1.439-0.176,1.902-0.527C334.409,243.782,334.64,243.357,334.64,242.857z"/>
		<path d="M344.659,245.413c-0.074-0.34-0.125-0.634-0.156-0.882c-0.031-0.246-0.047-0.497-0.047-0.751
			c-0.371,0.526-0.865,0.962-1.484,1.308c-0.619,0.347-1.314,0.52-2.088,0.52c-0.977,0-1.736-0.26-2.277-0.779
			s-0.813-1.215-0.813-2.087c0-0.928,0.4-1.67,1.203-2.227c0.801-0.557,1.881-0.835,3.242-0.835h2.217v-1.243
			c0-0.718-0.23-1.28-0.691-1.688s-1.105-0.612-1.934-0.612c-0.773,0-1.416,0.194-1.926,0.585c-0.51,0.389-0.766,0.865-0.766,1.428
			l-1.02-0.009l-0.02-0.056c-0.037-0.748,0.305-1.418,1.025-2.009s1.637-0.886,2.75-0.886c1.107,0,1.998,0.281,2.672,0.844
			c0.676,0.563,1.012,1.371,1.012,2.422v4.936c0,0.353,0.02,0.695,0.061,1.029s0.107,0.666,0.199,0.993H344.659z M341.015,244.625
			c0.797,0,1.502-0.188,2.115-0.562c0.611-0.374,1.055-0.853,1.326-1.434v-2.097h-2.236c-1.008,0-1.813,0.215-2.416,0.645
			s-0.904,0.964-0.904,1.601c0,0.544,0.186,0.988,0.561,1.331C339.835,244.453,340.353,244.625,341.015,244.625z"/>
		<path d="M348.083,240.477c0-1.602,0.342-2.884,1.025-3.846s1.635-1.442,2.854-1.442c0.711,0,1.326,0.156,1.846,0.469
			s0.949,0.753,1.289,1.322l0.131-1.605h0.936v9.908c0,1.293-0.357,2.313-1.07,3.062c-0.715,0.748-1.709,1.122-2.982,1.122
			c-0.482,0-0.996-0.059-1.541-0.176s-1.02-0.278-1.428-0.482l0.287-0.938c0.395,0.198,0.813,0.349,1.252,0.45
			c0.439,0.103,0.91,0.153,1.41,0.153c0.977,0,1.715-0.281,2.213-0.844c0.498-0.563,0.746-1.346,0.746-2.348v-1.262
			c-0.34,0.508-0.77,0.898-1.289,1.174s-1.125,0.412-1.818,0.412c-1.205,0-2.15-0.447-2.834-1.345
			c-0.684-0.896-1.025-2.093-1.025-3.591V240.477z M349.196,240.673c0,1.211,0.248,2.179,0.742,2.902s1.23,1.086,2.209,1.086
			c0.717,0,1.314-0.166,1.795-0.497c0.479-0.331,0.848-0.787,1.107-1.368v-4.657c-0.24-0.587-0.596-1.067-1.063-1.442
			c-0.467-0.374-1.074-0.562-1.822-0.562c-0.977,0-1.717,0.403-2.217,1.212c-0.502,0.807-0.752,1.851-0.752,3.131V240.673z"/>
		<path d="M362.87,245.607c-1.256,0-2.299-0.463-3.131-1.391s-1.248-2.104-1.248-3.525v-0.511c0-1.435,0.414-2.626,1.238-3.571
			c0.826-0.947,1.826-1.42,3.002-1.42c1.23,0,2.199,0.39,2.904,1.169s1.057,1.818,1.057,3.117v0.946h-7.088v0.269
			c0,1.13,0.301,2.073,0.9,2.833c0.6,0.759,1.389,1.139,2.365,1.139c0.693,0,1.283-0.096,1.771-0.288
			c0.49-0.191,0.906-0.467,1.254-0.825l0.473,0.76c-0.377,0.398-0.855,0.714-1.434,0.947
			C364.356,245.49,363.669,245.607,362.87,245.607z M362.731,236.135c-0.822,0-1.512,0.313-2.068,0.938
			c-0.557,0.627-0.883,1.412-0.975,2.355l0.018,0.046h5.883v-0.278c0-0.869-0.256-1.597-0.77-2.183S363.61,236.135,362.731,236.135z
			"/>
		<path d="M273.771,268.212v-13.508h3.926c1.65,0,3.014,0.551,4.09,1.651s1.615,2.515,1.615,4.239v1.735
			c0,1.731-0.539,3.146-1.615,4.239c-1.076,1.096-2.439,1.643-4.09,1.643H273.771z M274.876,255.651v11.615h2.82
			c1.336,0,2.436-0.466,3.297-1.399c0.863-0.934,1.295-2.113,1.295-3.541v-1.762c0-1.409-0.434-2.58-1.299-3.514
			c-0.865-0.933-1.963-1.399-3.293-1.399H274.876z"/>
		<path d="M287.177,255.298h-1.104v-1.559h1.104V255.298z M287.177,268.212h-1.104v-10.038h1.104V268.212z"/>
		<path d="M296.603,268.212c-0.074-0.34-0.125-0.634-0.156-0.881c-0.031-0.248-0.047-0.498-0.047-0.752
			c-0.371,0.525-0.865,0.962-1.484,1.309c-0.619,0.346-1.314,0.52-2.088,0.52c-0.977,0-1.736-0.26-2.277-0.779
			s-0.813-1.216-0.813-2.088c0-0.928,0.4-1.67,1.203-2.227c0.801-0.557,1.881-0.835,3.242-0.835h2.217v-1.243
			c0-0.717-0.23-1.28-0.691-1.688s-1.105-0.612-1.934-0.612c-0.773,0-1.416,0.195-1.926,0.584c-0.51,0.391-0.766,0.867-0.766,1.43
			l-1.02-0.01l-0.02-0.056c-0.037-0.748,0.305-1.418,1.025-2.009c0.721-0.59,1.637-0.886,2.75-0.886
			c1.107,0,1.998,0.282,2.672,0.845c0.676,0.563,1.012,1.369,1.012,2.421v4.936c0,0.353,0.02,0.696,0.061,1.03
			s0.107,0.664,0.199,0.992H296.603z M292.958,267.423c0.797,0,1.502-0.187,2.115-0.561c0.611-0.375,1.055-0.852,1.326-1.434v-2.097
			h-2.236c-1.008,0-1.813,0.215-2.416,0.645c-0.604,0.431-0.904,0.964-0.904,1.601c0,0.545,0.186,0.988,0.561,1.331
			C291.778,267.252,292.296,267.423,292.958,267.423z"/>
		<path d="M308.552,263.472c0,1.502-0.34,2.701-1.02,3.595c-0.682,0.894-1.617,1.341-2.811,1.341c-0.736,0-1.371-0.147-1.902-0.441
			c-0.533-0.293-0.963-0.715-1.289-1.266l-0.121,1.512h-0.955V253.74h1.113v6.012c0.334-0.563,0.76-0.997,1.279-1.304
			c0.52-0.306,1.139-0.459,1.855-0.459c1.207,0,2.148,0.481,2.83,1.442c0.68,0.962,1.02,2.244,1.02,3.846V263.472z M307.431,263.277
			c0-1.285-0.248-2.33-0.742-3.135c-0.496-0.805-1.229-1.207-2.199-1.207c-0.773,0-1.396,0.193-1.869,0.578
			c-0.475,0.385-0.824,0.879-1.053,1.48v4.557c0.246,0.584,0.615,1.049,1.107,1.394s1.104,0.517,1.832,0.517
			c0.971,0,1.701-0.359,2.189-1.08s0.734-1.689,0.734-2.908V263.277z"/>
		<path d="M314.806,268.408c-1.256,0-2.301-0.465-3.131-1.393c-0.832-0.928-1.248-2.102-1.248-3.525v-0.51
			c0-1.435,0.412-2.625,1.238-3.572c0.826-0.945,1.826-1.419,3.002-1.419c1.23,0,2.197,0.39,2.902,1.169s1.059,1.818,1.059,3.117
			v0.946h-7.088v0.269c0,1.129,0.299,2.074,0.9,2.832c0.6,0.76,1.387,1.139,2.365,1.139c0.691,0,1.283-0.096,1.771-0.287
			s0.906-0.467,1.252-0.826l0.475,0.762c-0.379,0.396-0.855,0.713-1.434,0.947C316.29,268.291,315.603,268.408,314.806,268.408z
			 M314.667,258.935c-0.824,0-1.514,0.313-2.07,0.939c-0.557,0.625-0.881,1.41-0.973,2.354l0.018,0.047h5.883v-0.277
			c0-0.869-0.258-1.598-0.771-2.184S315.544,258.935,314.667,258.935z"/>
		<path d="M322.571,255.605v2.569h2.207v0.909h-2.207v6.541c0,0.655,0.119,1.121,0.357,1.396c0.236,0.275,0.555,0.413,0.949,0.413
			c0.18,0,0.355-0.008,0.525-0.023s0.365-0.041,0.588-0.078l0.168,0.825c-0.186,0.08-0.412,0.142-0.678,0.186
			c-0.266,0.043-0.531,0.065-0.797,0.065c-0.705,0-1.254-0.223-1.646-0.668c-0.395-0.445-0.59-1.15-0.59-2.115v-6.541h-1.734v-0.909
			h1.734v-2.569H322.571z"/>
		<path d="M330.901,268.408c-1.256,0-2.299-0.465-3.131-1.393s-1.248-2.102-1.248-3.525v-0.51c0-1.435,0.414-2.625,1.238-3.572
			c0.826-0.945,1.826-1.419,3.002-1.419c1.23,0,2.199,0.39,2.904,1.169s1.057,1.818,1.057,3.117v0.946h-7.088v0.269
			c0,1.129,0.301,2.074,0.9,2.832c0.6,0.76,1.389,1.139,2.365,1.139c0.693,0,1.283-0.096,1.771-0.287
			c0.49-0.191,0.906-0.467,1.254-0.826l0.473,0.762c-0.377,0.396-0.855,0.713-1.434,0.947S331.7,268.408,330.901,268.408z
			 M330.763,258.935c-0.822,0-1.512,0.313-2.068,0.939c-0.557,0.625-0.883,1.41-0.975,2.354l0.018,0.047h5.883v-0.277
			c0-0.869-0.256-1.598-0.77-2.184S331.642,258.935,330.763,258.935z"/>
		<path d="M342.935,265.656c0-0.469-0.193-0.879-0.58-1.23s-1.084-0.639-2.092-0.861c-1.201-0.26-2.086-0.603-2.658-1.029
			s-0.859-1.029-0.859-1.809c0-0.768,0.324-1.415,0.971-1.944c0.646-0.528,1.502-0.793,2.564-0.793c1.133,0,2.029,0.28,2.691,0.84
			s0.977,1.261,0.945,2.101l-0.018,0.057h-1.031c0-0.551-0.232-1.03-0.699-1.438s-1.096-0.612-1.889-0.612
			c-0.811,0-1.418,0.174-1.822,0.521c-0.406,0.348-0.607,0.756-0.607,1.223c0,0.462,0.174,0.844,0.523,1.145
			c0.35,0.303,1.047,0.566,2.092,0.795c1.193,0.267,2.088,0.631,2.682,1.094c0.594,0.462,0.891,1.09,0.891,1.885
			c0,0.837-0.338,1.515-1.016,2.033c-0.678,0.518-1.572,0.777-2.686,0.777c-1.219,0-2.176-0.291-2.871-0.873
			c-0.697-0.58-1.025-1.273-0.988-2.078l0.018-0.055h1.021c0.043,0.72,0.338,1.243,0.885,1.569c0.549,0.327,1.193,0.489,1.936,0.489
			c0.803,0,1.438-0.176,1.9-0.527C342.702,266.582,342.935,266.156,342.935,265.656z"/>
		<path d="M352.601,262.108v6.104h-1.104v-13.498h4.574c1.447,0,2.557,0.316,3.33,0.95s1.16,1.561,1.16,2.778
			c0,0.719-0.207,1.359-0.621,1.926c-0.414,0.565-1,0.979-1.754,1.238c0.834,0.211,1.436,0.586,1.805,1.127
			c0.367,0.541,0.551,1.221,0.551,2.037v1.271c0,0.421,0.051,0.798,0.148,1.132c0.1,0.334,0.264,0.606,0.492,0.816v0.223h-1.131
			c-0.229-0.223-0.391-0.535-0.482-0.938c-0.094-0.401-0.141-0.818-0.141-1.252v-1.234c0-0.828-0.268-1.482-0.801-1.962
			c-0.535-0.479-1.283-0.719-2.242-0.719H352.601z M352.601,261.162h3.332c1.219,0,2.109-0.246,2.672-0.737
			c0.563-0.492,0.844-1.155,0.844-1.99c0-0.891-0.279-1.575-0.84-2.055s-1.406-0.72-2.537-0.72h-3.471V261.162z"/>
		<path d="M364.968,255.298h-1.104v-1.559h1.104V255.298z M364.968,268.212h-1.104v-10.038h1.104V268.212z"/>
		<path d="M374.05,265.656c0-0.469-0.193-0.879-0.58-1.23s-1.084-0.639-2.092-0.861c-1.199-0.26-2.086-0.603-2.658-1.029
			s-0.857-1.029-0.857-1.809c0-0.768,0.322-1.415,0.969-1.944c0.646-0.528,1.502-0.793,2.566-0.793c1.131,0,2.027,0.28,2.689,0.84
			s0.979,1.261,0.947,2.101l-0.02,0.057h-1.029c0-0.551-0.234-1.03-0.701-1.438s-1.096-0.612-1.887-0.612
			c-0.811,0-1.418,0.174-1.824,0.521c-0.404,0.348-0.607,0.756-0.607,1.223c0,0.462,0.176,0.844,0.525,1.145
			c0.348,0.303,1.047,0.566,2.092,0.795c1.193,0.267,2.088,0.631,2.682,1.094c0.594,0.462,0.891,1.09,0.891,1.885
			c0,0.837-0.34,1.515-1.018,2.033c-0.676,0.518-1.572,0.777-2.686,0.777c-1.219,0-2.176-0.291-2.871-0.873
			c-0.695-0.58-1.025-1.273-0.988-2.078l0.02-0.055h1.02c0.043,0.72,0.34,1.243,0.887,1.569c0.547,0.327,1.191,0.489,1.934,0.489
			c0.805,0,1.439-0.176,1.902-0.527C373.819,266.582,374.05,266.156,374.05,265.656z"/>
		<path d="M378.958,255.298h-1.104v-1.559h1.104V255.298z M378.958,268.212h-1.104v-10.038h1.104V268.212z"/>
		<path d="M384.433,263.314h-1.281v4.898h-1.113V253.74h1.113v8.628h1.17l3.729-4.193h1.299l0.02,0.046l-4.018,4.524l4.434,5.421
			l-0.027,0.047h-1.271L384.433,263.314z"/>
		<path d="M390.739,263.044c0-1.478,0.406-2.689,1.217-3.637c0.811-0.945,1.883-1.419,3.219-1.419c1.342,0,2.418,0.474,3.229,1.419
			c0.811,0.947,1.215,2.159,1.215,3.637v0.307c0,1.484-0.402,2.698-1.211,3.642c-0.807,0.942-1.879,1.415-3.215,1.415
			c-1.348,0-2.426-0.473-3.236-1.415c-0.811-0.943-1.217-2.157-1.217-3.642V263.044z M391.853,263.346
			c0,1.161,0.295,2.138,0.883,2.929s1.406,1.186,2.457,1.186c1.033,0,1.846-0.395,2.436-1.186c0.592-0.791,0.887-1.768,0.887-2.929
			v-0.306c0-1.143-0.297-2.113-0.891-2.91s-1.41-1.195-2.449-1.195s-1.852,0.398-2.439,1.195s-0.883,1.768-0.883,2.91V263.346z"/>
	</g>
	<g>
		<path fill-rule="evenodd" clip-rule="evenodd" d="M143.043,249.523c0-0.416,0.021-0.833-0.005-1.247
			c-0.032-0.523,0.188-0.686,0.699-0.662c3.759,0.166,6.829,1.713,9.188,4.626c1.688,2.088,2.546,4.504,2.649,7.193
			c0.021,0.565-0.187,0.734-0.718,0.716c-0.808-0.028-1.619-0.035-2.428,0.002c-0.559,0.025-0.769-0.176-0.805-0.739
			c-0.261-4.091-3.082-7.172-7.122-7.812c-1.459-0.231-1.459-0.231-1.459-1.749C143.043,249.742,143.043,249.632,143.043,249.523z
			 M143.717,248.318c0,0.462,0,0.874,0,1.287c0,0.408,0,0.816,0,1.203c5.498,1.032,7.399,2.931,8.664,8.609c0.827,0,1.662,0,2.497,0
			C154.719,253.218,149.509,248.395,143.717,248.318z"/>
		<path fill-rule="evenodd" clip-rule="evenodd" d="M148.197,260.141c-0.044,0-0.087,0-0.131,0c-1.112,0-1.112,0-1.362-1.058
			c-0.342-1.442-1.501-2.503-2.975-2.64c-0.539-0.05-0.722-0.264-0.693-0.778c0.03-0.522,0.017-1.048,0.005-1.571
			c-0.01-0.401,0.122-0.585,0.568-0.583c3.175,0.013,6.113,2.97,6.073,6.115c-0.005,0.37-0.155,0.517-0.504,0.513
			c-0.327-0.002-0.654,0-0.981,0V260.141z M147.471,259.471c0.304,0,0.605,0.004,0.906-0.002c0.191-0.003,0.383-0.021,0.571-0.031
			c0.02-2.65-2.463-5.139-5.196-5.213c0,0.493,0,0.985,0,1.502C145.859,256.086,147.083,257.329,147.471,259.471z"/>
		<path fill-rule="evenodd" clip-rule="evenodd" d="M143.378,261.819c-1.111,0.003-1.999-0.868-2.012-1.976
			c-0.013-1.135,0.895-2.045,2.026-2.032c1.101,0.013,1.993,0.918,1.989,2.015C145.376,260.923,144.48,261.816,143.378,261.819z
			 M143.402,258.5c-0.736-0.015-1.357,0.575-1.368,1.3c-0.011,0.713,0.617,1.347,1.334,1.349c0.703,0.002,1.293-0.572,1.316-1.28
			C144.709,259.118,144.146,258.515,143.402,258.5z"/>
		<path fill-rule="evenodd" clip-rule="evenodd" fill="#FFFFFF" d="M143.717,248.318c5.792,0.077,11.002,4.9,11.161,11.1
			c-0.835,0-1.67,0-2.497,0c-1.265-5.679-3.166-7.577-8.664-8.609c0-0.387,0-0.795,0-1.203
			C143.717,249.192,143.717,248.78,143.717,248.318z"/>
		<path fill-rule="evenodd" clip-rule="evenodd" fill="#FFFFFF" d="M147.471,259.471c-0.388-2.143-1.611-3.385-3.719-3.744
			c0-0.517,0-1.009,0-1.502c2.733,0.074,5.216,2.563,5.196,5.213c-0.188,0.01-0.38,0.028-0.571,0.031
			C148.076,259.475,147.774,259.471,147.471,259.471z"/>
		<path fill-rule="evenodd" clip-rule="evenodd" fill="#FFFFFF" d="M143.402,258.5c0.743,0.016,1.307,0.618,1.282,1.368
			c-0.023,0.708-0.613,1.282-1.316,1.28c-0.717-0.002-1.345-0.636-1.334-1.349C142.045,259.075,142.666,258.485,143.402,258.5z"/>
	</g>
	<g>
		<path d="M11.692,260.98H5.505l-1.393,3.767h-1.15l5.131-13.508h1.049l5.092,13.508h-1.15L11.692,260.98z M5.876,259.988h5.455
			l-2.691-7.311H8.585L5.876,259.988z"/>
		<path d="M22.472,263.105c-0.32,0.588-0.754,1.04-1.299,1.358c-0.543,0.319-1.188,0.478-1.93,0.478
			c-1.057,0-1.885-0.357-2.486-1.076c-0.6-0.717-0.898-1.83-0.898-3.34v-5.816h1.113v5.848c0,1.227,0.209,2.106,0.625,2.64
			c0.418,0.532,1.01,0.8,1.777,0.8c0.842,0,1.512-0.189,2.014-0.567c0.5-0.378,0.85-0.899,1.047-1.562v-7.158h1.113v10.038h-0.982
			L22.472,263.105z"/>
		<path d="M32.483,262.191c0-0.469-0.193-0.88-0.58-1.231s-1.084-0.639-2.092-0.86c-1.201-0.26-2.086-0.604-2.658-1.03
			s-0.859-1.03-0.859-1.81c0-0.766,0.324-1.414,0.971-1.943c0.646-0.528,1.502-0.793,2.564-0.793c1.133,0,2.029,0.279,2.691,0.84
			c0.662,0.56,0.977,1.26,0.945,2.102l-0.018,0.055h-1.031c0-0.55-0.232-1.029-0.699-1.438s-1.096-0.612-1.889-0.612
			c-0.811,0-1.418,0.174-1.822,0.521c-0.406,0.348-0.607,0.755-0.607,1.224c0,0.461,0.174,0.843,0.523,1.145
			c0.35,0.301,1.047,0.566,2.092,0.793c1.193,0.268,2.088,0.632,2.682,1.094c0.594,0.463,0.891,1.091,0.891,1.885
			c0,0.838-0.338,1.516-1.016,2.033c-0.678,0.519-1.572,0.777-2.686,0.777c-1.219,0-2.176-0.29-2.871-0.871
			c-0.697-0.582-1.025-1.274-0.988-2.078l0.018-0.057h1.021c0.043,0.721,0.338,1.244,0.885,1.57c0.549,0.326,1.193,0.49,1.936,0.49
			c0.803,0,1.438-0.176,1.9-0.527C32.251,263.116,32.483,262.691,32.483,262.191z"/>
		<path d="M38.308,261.49l0.381,1.791h0.057l0.473-1.791l2.133-6.781h0.957l2.133,6.781l0.482,1.838h0.057l0.416-1.838l1.828-6.781
			h1.15l-2.922,10.038h-0.947l-2.227-6.865l-0.436-1.735h-0.055l-0.445,1.735l-2.189,6.865h-0.957l-2.912-10.038h1.15L38.308,261.49
			z"/>
		<path d="M54.294,264.941c-1.256,0-2.299-0.463-3.131-1.391s-1.248-2.104-1.248-3.525v-0.511c0-1.435,0.414-2.626,1.238-3.571
			c0.826-0.947,1.826-1.42,3.002-1.42c1.23,0,2.199,0.39,2.904,1.169s1.057,1.818,1.057,3.117v0.946h-7.088v0.269
			c0,1.13,0.301,2.073,0.9,2.833c0.6,0.759,1.389,1.139,2.365,1.139c0.693,0,1.283-0.096,1.771-0.288
			c0.49-0.191,0.906-0.467,1.254-0.825l0.473,0.76c-0.377,0.398-0.855,0.714-1.434,0.947
			C55.78,264.824,55.093,264.941,54.294,264.941z M54.155,255.469c-0.822,0-1.512,0.313-2.068,0.938
			c-0.557,0.627-0.883,1.412-0.975,2.355l0.018,0.046h5.883v-0.278c0-0.869-0.256-1.597-0.77-2.183S55.034,255.469,54.155,255.469z"
			/>
		<path d="M64.935,255.664l-0.826-0.055c-0.697,0-1.271,0.195-1.721,0.589c-0.447,0.393-0.768,0.933-0.959,1.618v6.931h-1.113
			v-10.038h0.973l0.141,1.67v0.111c0.291-0.618,0.68-1.101,1.168-1.447c0.488-0.346,1.07-0.52,1.744-0.52
			c0.143,0,0.279,0.011,0.414,0.032c0.133,0.022,0.242,0.046,0.328,0.069L64.935,255.664z"/>
		<path d="M68.823,252.138v2.57h2.207v0.909h-2.207v6.54c0,0.656,0.119,1.121,0.357,1.396c0.236,0.275,0.555,0.413,0.949,0.413
			c0.18,0,0.355-0.008,0.525-0.023c0.17-0.015,0.365-0.042,0.588-0.079l0.168,0.826c-0.186,0.08-0.412,0.143-0.678,0.186
			s-0.531,0.064-0.797,0.064c-0.705,0-1.254-0.223-1.646-0.668c-0.395-0.445-0.59-1.15-0.59-2.115v-6.54h-1.734v-0.909H67.7v-2.57
			H68.823z"/>
		<path d="M79.964,263.105c-0.32,0.588-0.754,1.04-1.299,1.358c-0.543,0.319-1.188,0.478-1.93,0.478
			c-1.057,0-1.885-0.357-2.486-1.076c-0.6-0.717-0.898-1.83-0.898-3.34v-5.816h1.113v5.848c0,1.227,0.209,2.106,0.625,2.64
			c0.418,0.532,1.01,0.8,1.777,0.8c0.842,0,1.512-0.189,2.014-0.567c0.5-0.378,0.85-0.899,1.047-1.562v-7.158h1.113v10.038h-0.982
			L79.964,263.105z"/>
		<path d="M84.946,254.708l0.102,1.754c0.322-0.619,0.758-1.097,1.305-1.434c0.547-0.338,1.195-0.506,1.943-0.506
			c1.088,0,1.918,0.332,2.486,0.997s0.854,1.702,0.854,3.112v6.114h-1.113v-6.116c0-1.153-0.215-1.969-0.645-2.445
			s-1.041-0.716-1.832-0.716c-0.779,0-1.416,0.206-1.906,0.618c-0.492,0.412-0.846,0.959-1.063,1.641v7.019h-1.113v-10.038H84.946z"
			/>
		<path d="M94.103,259.811c0-1.602,0.342-2.884,1.025-3.846s1.635-1.442,2.854-1.442c0.711,0,1.326,0.156,1.846,0.469
			s0.949,0.753,1.289,1.322l0.131-1.605h0.938v9.908c0,1.293-0.357,2.313-1.072,3.062c-0.715,0.748-1.709,1.122-2.982,1.122
			c-0.482,0-0.996-0.059-1.541-0.176c-0.543-0.117-1.02-0.278-1.428-0.482l0.287-0.938c0.396,0.198,0.814,0.349,1.252,0.45
			c0.439,0.103,0.91,0.153,1.41,0.153c0.979,0,1.715-0.281,2.213-0.844c0.498-0.563,0.748-1.346,0.748-2.348v-1.262
			c-0.34,0.508-0.771,0.898-1.291,1.174s-1.125,0.412-1.818,0.412c-1.205,0-2.15-0.447-2.834-1.345
			c-0.684-0.896-1.025-2.093-1.025-3.591V259.811z M95.216,260.007c0,1.211,0.248,2.179,0.742,2.902
			c0.496,0.724,1.232,1.086,2.209,1.086c0.717,0,1.316-0.166,1.795-0.497s0.85-0.787,1.109-1.368v-4.657
			c-0.242-0.587-0.596-1.067-1.063-1.442c-0.467-0.374-1.074-0.562-1.824-0.562c-0.977,0-1.715,0.403-2.217,1.212
			c-0.5,0.807-0.752,1.851-0.752,3.131V260.007z"/>
		<path d="M6.265,280.171c-0.5-0.619-0.871-1.184-1.113-1.693c-0.24-0.511-0.361-1.035-0.361-1.572c0-0.978,0.275-1.732,0.826-2.264
			c0.551-0.532,1.305-0.799,2.264-0.799c0.891,0,1.596,0.251,2.119,0.752s0.783,1.132,0.783,1.893c0,0.557-0.139,1.036-0.416,1.438
			c-0.279,0.402-0.682,0.805-1.207,1.207l-1.475,1.131l3.822,4.463c0.303-0.439,0.537-0.931,0.705-1.475
			c0.166-0.545,0.25-1.126,0.25-1.744h1.021c0,0.791-0.113,1.52-0.34,2.185c-0.225,0.665-0.551,1.267-0.979,1.804l1.717,2.004
			l-0.02,0.047h-1.27l-1.133-1.309c-0.525,0.482-1.1,0.854-1.725,1.113s-1.299,0.391-2.023,0.391c-1.293,0-2.316-0.331-3.07-0.993
			c-0.754-0.661-1.133-1.543-1.133-2.644c0-0.742,0.225-1.412,0.674-2.009c0.447-0.597,1.096-1.204,1.943-1.823L6.265,280.171z
			 M7.712,286.794c0.57,0,1.125-0.109,1.666-0.331s1.027-0.537,1.461-0.948l-3.842-4.473c-0.029-0.03-0.057-0.057-0.078-0.078
			s-0.039-0.045-0.051-0.07l-0.436,0.334c-0.719,0.58-1.199,1.105-1.443,1.574c-0.244,0.47-0.367,0.902-0.367,1.297
			c0,0.766,0.266,1.406,0.795,1.922C5.944,286.537,6.71,286.794,7.712,286.794z M5.903,276.886c0,0.408,0.098,0.832,0.293,1.271
			c0.193,0.439,0.492,0.906,0.895,1.4l1.643-1.225c0.357-0.277,0.613-0.568,0.766-0.871c0.15-0.303,0.227-0.628,0.227-0.975
			c0-0.488-0.162-0.894-0.486-1.215c-0.326-0.322-0.779-0.482-1.359-0.482c-0.631,0-1.119,0.201-1.461,0.603
			C6.075,275.795,5.903,276.292,5.903,276.886z"/>
		<path d="M22.103,287.546h-1.113v-13.508h1.113V287.546z"/>
		<path d="M26.563,277.508l0.102,1.753c0.322-0.617,0.758-1.096,1.305-1.433s1.195-0.506,1.943-0.506
			c1.088,0,1.918,0.333,2.486,0.997c0.568,0.665,0.854,1.703,0.854,3.113v6.113H32.14v-6.117c0-1.152-0.215-1.967-0.645-2.444
			s-1.041-0.716-1.832-0.716c-0.779,0-1.416,0.206-1.906,0.618c-0.492,0.412-0.846,0.959-1.063,1.641v7.019h-1.113v-10.038H26.563z"
			/>
		<path d="M36.964,287.546v-9.129h-1.66v-0.909h1.66v-1.466c0-1.008,0.252-1.787,0.756-2.338s1.211-0.826,2.119-0.826
			c0.205,0,0.412,0.016,0.623,0.047c0.209,0.031,0.424,0.074,0.639,0.13l-0.139,0.919c-0.148-0.037-0.301-0.066-0.459-0.089
			c-0.158-0.021-0.342-0.032-0.553-0.032c-0.605,0-1.068,0.191-1.391,0.575s-0.482,0.922-0.482,1.614v1.466h2.393v0.909h-2.393
			v9.129H36.964z"/>
		<path d="M41.778,282.378c0-1.478,0.406-2.689,1.217-3.637c0.811-0.945,1.883-1.419,3.219-1.419c1.342,0,2.418,0.474,3.229,1.419
			c0.811,0.947,1.215,2.159,1.215,3.637v0.307c0,1.484-0.402,2.698-1.211,3.642c-0.807,0.942-1.879,1.415-3.215,1.415
			c-1.348,0-2.426-0.473-3.236-1.415c-0.811-0.943-1.217-2.157-1.217-3.642V282.378z M42.892,282.68
			c0,1.161,0.295,2.138,0.883,2.929s1.406,1.186,2.457,1.186c1.033,0,1.846-0.395,2.436-1.186c0.592-0.791,0.887-1.768,0.887-2.929
			v-0.306c0-1.143-0.297-2.113-0.891-2.91s-1.41-1.195-2.449-1.195s-1.852,0.398-2.439,1.195s-0.883,1.768-0.883,2.91V282.68z"/>
		<path d="M57.597,278.464l-0.826-0.057c-0.697,0-1.271,0.197-1.721,0.59c-0.447,0.393-0.768,0.932-0.959,1.619v6.93h-1.113v-10.038
			h0.973l0.141,1.67v0.111c0.291-0.618,0.68-1.101,1.168-1.447s1.07-0.52,1.744-0.52c0.143,0,0.279,0.011,0.414,0.032
			c0.133,0.021,0.242,0.045,0.328,0.07L57.597,278.464z"/>
		<path d="M60.38,277.508l0.102,1.661c0.322-0.588,0.75-1.043,1.285-1.364s1.174-0.482,1.916-0.482c0.768,0,1.408,0.186,1.926,0.557
			c0.516,0.371,0.885,0.937,1.107,1.698c0.303-0.705,0.734-1.258,1.295-1.656c0.559-0.399,1.242-0.599,2.045-0.599
			c1.07,0,1.896,0.356,2.479,1.067c0.58,0.711,0.871,1.813,0.871,3.303v5.854h-1.113v-5.885c0-1.238-0.219-2.114-0.654-2.625
			c-0.436-0.512-1.043-0.768-1.822-0.768c-0.859,0-1.525,0.27-1.994,0.809c-0.471,0.539-0.762,1.23-0.873,2.073
			c0,0.044,0.002,0.105,0.004,0.187c0.004,0.08,0.006,0.139,0.006,0.176v6.033h-1.123v-5.885c0-1.215-0.221-2.084-0.664-2.607
			c-0.441-0.523-1.049-0.785-1.822-0.785c-0.785,0-1.408,0.199-1.869,0.6s-0.783,0.938-0.969,1.613v7.064h-1.123v-10.038H60.38z"/>
		<path d="M82.636,287.546c-0.074-0.34-0.125-0.634-0.156-0.881c-0.031-0.248-0.047-0.498-0.047-0.752
			c-0.371,0.525-0.865,0.962-1.484,1.309c-0.619,0.346-1.314,0.52-2.088,0.52c-0.977,0-1.736-0.26-2.277-0.779
			s-0.813-1.216-0.813-2.088c0-0.928,0.4-1.67,1.203-2.227c0.801-0.557,1.881-0.835,3.242-0.835h2.217v-1.243
			c0-0.717-0.23-1.28-0.691-1.688s-1.105-0.612-1.934-0.612c-0.773,0-1.416,0.195-1.926,0.584c-0.51,0.391-0.766,0.867-0.766,1.43
			l-1.02-0.01l-0.02-0.056c-0.037-0.748,0.305-1.418,1.025-2.009c0.721-0.59,1.637-0.886,2.75-0.886
			c1.107,0,1.998,0.282,2.672,0.845c0.676,0.563,1.012,1.369,1.012,2.421v4.936c0,0.353,0.02,0.696,0.061,1.03
			s0.107,0.664,0.199,0.992H82.636z M78.991,286.757c0.797,0,1.502-0.187,2.115-0.561c0.611-0.375,1.055-0.852,1.326-1.434v-2.097
			h-2.236c-1.008,0-1.813,0.215-2.416,0.645c-0.604,0.431-0.904,0.964-0.904,1.601c0,0.545,0.186,0.988,0.561,1.331
			C77.812,286.586,78.329,286.757,78.991,286.757z"/>
		<path d="M88.239,274.939v2.569h2.209v0.909h-2.209v6.541c0,0.655,0.119,1.121,0.357,1.396c0.238,0.275,0.555,0.413,0.951,0.413
			c0.18,0,0.354-0.008,0.523-0.023s0.367-0.041,0.59-0.078l0.168,0.825c-0.186,0.08-0.412,0.142-0.678,0.186
			c-0.266,0.043-0.533,0.065-0.799,0.065c-0.705,0-1.254-0.223-1.646-0.668s-0.588-1.15-0.588-2.115v-6.541h-1.736v-0.909h1.736
			v-2.569H88.239z"/>
		<path d="M94.048,274.632h-1.104v-1.559h1.104V274.632z M94.048,287.546h-1.104v-10.038h1.104V287.546z"/>
		<path d="M96.495,282.378c0-1.478,0.406-2.689,1.217-3.637c0.811-0.945,1.883-1.419,3.219-1.419c1.342,0,2.418,0.474,3.229,1.419
			c0.811,0.947,1.215,2.159,1.215,3.637v0.307c0,1.484-0.402,2.698-1.211,3.642c-0.807,0.942-1.879,1.415-3.215,1.415
			c-1.348,0-2.426-0.473-3.236-1.415c-0.811-0.943-1.217-2.157-1.217-3.642V282.378z M97.608,282.68
			c0,1.161,0.295,2.138,0.883,2.929s1.406,1.186,2.457,1.186c1.033,0,1.846-0.395,2.436-1.186c0.592-0.791,0.887-1.768,0.887-2.929
			v-0.306c0-1.143-0.297-2.113-0.891-2.91s-1.41-1.195-2.449-1.195s-1.852,0.398-2.439,1.195s-0.883,1.768-0.883,2.91V282.68z"/>
		<path d="M108.677,277.508l0.102,1.753c0.322-0.617,0.758-1.096,1.305-1.433s1.195-0.506,1.943-0.506
			c1.088,0,1.918,0.333,2.486,0.997c0.568,0.665,0.854,1.703,0.854,3.113v6.113h-1.113v-6.117c0-1.152-0.215-1.967-0.645-2.444
			s-1.041-0.716-1.832-0.716c-0.779,0-1.416,0.206-1.906,0.618c-0.492,0.412-0.846,0.959-1.063,1.641v7.019h-1.113v-10.038H108.677z
			"/>
	</g>
	<g>
		<path fill="#1E1F22" d="M177.745,134.063c0,2.225-1.803,4.028-4.028,4.028h-20.554c-2.226,0-4.028-1.803-4.028-4.028v-20.554
			c0-2.225,1.803-4.028,4.028-4.028h20.554c2.226,0,4.028,1.803,4.028,4.028V134.063z"/>
		<path fill="#059347" d="M171.898,133.413v-5.773c-0.492-0.067-0.969-0.228-1.399-0.531c-0.617-0.435-1.159-0.991-1.59-1.726
			c-0.853-1.457-1.391-3.115-1.918-4.783c-0.225-0.711-0.421-1.438-0.661-2.14c-0.424-1.233-0.856-2.462-1.315-3.675
			c-0.216-0.573-0.472-1.123-0.872-1.546c-0.401-0.424-0.872-0.283-1.2,0.096c-0.335,0.388-0.582,0.87-0.767,1.39
			c-0.398,1.122-0.782,2.252-1.155,3.387c-0.277,0.843-0.51,1.709-0.8,2.544c-0.362,1.045-0.752,2.076-1.152,3.1
			c-0.343,0.88-0.77,1.704-1.316,2.396c-0.378,0.479-0.814,0.866-1.344,1.099c-0.485,0.213-0.966,0.389-1.476,0.445v5.773
			c0.51-0.056,0.99-0.232,1.476-0.445c0.529-0.232,0.966-0.619,1.344-1.099c0.547-0.692,0.974-1.516,1.316-2.396
			c0.4-1.023,0.79-2.054,1.152-3.1c0.29-0.834,0.522-1.701,0.8-2.543c0.373-1.135,0.757-2.266,1.155-3.388
			c0.185-0.52,0.432-1.002,0.767-1.39c0.328-0.378,0.799-0.521,1.2-0.096c0.4,0.423,0.656,0.973,0.872,1.545
			c0.459,1.213,0.892,2.442,1.315,3.675c0.24,0.702,0.437,1.429,0.661,2.141c0.527,1.667,1.065,3.325,1.918,4.782
			c0.431,0.735,0.973,1.292,1.59,1.727C170.93,133.184,171.406,133.345,171.898,133.413z"/>
	</g>
	<g>
		<path fill="#1E1F22" d="M177.745,189.483c0,2.226-1.804,4.028-4.028,4.028h-20.554c-2.226,0-4.028-1.803-4.028-4.028v-20.554
			c0-2.225,1.803-4.028,4.028-4.028h20.554c2.225,0,4.028,1.803,4.028,4.028V189.483z"/>
		<path fill="#F15B2A" d="M171.898,188.833v-5.774c-0.492-0.066-0.97-0.229-1.399-0.531c-0.617-0.434-1.16-0.991-1.59-1.726
			c-0.853-1.457-1.391-3.115-1.918-4.782c-0.225-0.712-0.422-1.439-0.661-2.141c-0.424-1.233-0.856-2.462-1.315-3.675
			c-0.217-0.572-0.472-1.122-0.872-1.544c-0.401-0.425-0.873-0.283-1.201,0.095c-0.334,0.388-0.581,0.871-0.766,1.39
			c-0.398,1.122-0.782,2.252-1.156,3.388c-0.276,0.842-0.51,1.709-0.8,2.543c-0.361,1.045-0.751,2.076-1.151,3.099
			c-0.343,0.881-0.771,1.704-1.316,2.396c-0.378,0.479-0.815,0.867-1.344,1.099c-0.486,0.213-0.966,0.389-1.476,0.445v5.774
			c0.51-0.056,0.989-0.232,1.476-0.446c0.528-0.231,0.966-0.619,1.344-1.099c0.546-0.692,0.974-1.515,1.316-2.396
			c0.4-1.023,0.79-2.054,1.151-3.1c0.29-0.834,0.523-1.701,0.8-2.543c0.374-1.135,0.758-2.265,1.156-3.387
			c0.185-0.52,0.432-1.002,0.766-1.39c0.328-0.378,0.8-0.521,1.201-0.096c0.4,0.423,0.655,0.973,0.872,1.545
			c0.459,1.213,0.892,2.442,1.315,3.676c0.239,0.701,0.437,1.428,0.661,2.14c0.527,1.667,1.065,3.326,1.918,4.782
			c0.43,0.735,0.973,1.292,1.59,1.727C170.929,188.604,171.406,188.766,171.898,188.833z"/>
	</g>
	<g>
		<path d="M195.266,127.703h-2.424v-9.944h-2.457v-1.71l4.881-0.432V127.703z"/>
		<path d="M206.646,123.212h1.369v1.868h-1.369v2.623h-2.416v-2.623h-4.931l-0.108-1.453l5.014-8.01h2.441V123.212z
			 M201.448,123.212h2.781v-4.358l-0.05-0.017l-0.19,0.341L201.448,123.212z"/>
		<path d="M217.511,117.484c-1.295,1.516-2.179,2.93-2.651,4.242c-0.474,1.312-0.813,2.894-1.017,4.748l-0.117,1.229h-2.424
			l0.117-1.229c0.188-1.776,0.592-3.407,1.211-4.894c0.62-1.485,1.47-2.851,2.549-4.096h-6.209v-1.868h8.541V117.484z"/>
	</g>
	<g>
		<path fill="#1E1F22" d="M153.762,103.745h-2.783l-0.566,1.66h-1.201l2.612-7.109h1.123l2.583,7.109h-1.206L153.762,103.745z
			 M151.32,102.754h2.104l-1.03-3.037h-0.029L151.32,102.754z"/>
		<path fill="#1E1F22" d="M157.468,105.405h-1.187v-7.617h1.187V105.405z"/>
		<path fill="#1E1F22" d="M160.061,105.405h-1.187v-7.617h1.187V105.405z"/>
		<path fill="#1E1F22" d="M163.654,105.508c-0.749,0-1.346-0.245-1.789-0.735c-0.445-0.49-0.667-1.119-0.667-1.887v-0.195
			c0-0.768,0.221-1.405,0.661-1.912c0.441-0.506,0.994-0.758,1.658-0.754c0.713,0,1.259,0.216,1.639,0.647
			c0.379,0.431,0.568,1.01,0.568,1.736v0.698h-3.296l-0.01,0.024c0.02,0.418,0.143,0.761,0.368,1.027
			c0.227,0.266,0.54,0.399,0.94,0.399c0.319,0,0.593-0.039,0.82-0.117s0.447-0.19,0.659-0.337l0.381,0.778
			c-0.198,0.177-0.462,0.326-0.791,0.447S164.087,105.508,163.654,105.508z M163.518,100.977c-0.293,0-0.534,0.116-0.723,0.349
			s-0.306,0.528-0.352,0.886l0.01,0.024h2.095v-0.122c0-0.335-0.085-0.609-0.257-0.82
			C164.121,101.083,163.862,100.977,163.518,100.977z"/>
		<path fill="#1E1F22" d="M171.047,103.511v0.01l0.005-0.024l1.421-5.2h0.947l1.436,5.215l0.005,0.034l0.005-0.049l1.123-5.2h1.167
			l-1.689,7.109h-1.079l-1.421-5.103h-0.029l-1.426,5.103h-1.084l-1.685-7.109h1.167L171.047,103.511z"/>
		<path fill="#1E1F22" d="M180.124,105.508c-0.749,0-1.346-0.245-1.789-0.735c-0.445-0.49-0.667-1.119-0.667-1.887v-0.195
			c0-0.768,0.221-1.405,0.661-1.912c0.441-0.506,0.994-0.758,1.658-0.754c0.713,0,1.259,0.216,1.639,0.647
			c0.379,0.431,0.568,1.01,0.568,1.736v0.698h-3.296l-0.01,0.024c0.02,0.418,0.143,0.761,0.368,1.027
			c0.227,0.266,0.54,0.399,0.94,0.399c0.319,0,0.593-0.039,0.82-0.117s0.447-0.19,0.659-0.337l0.381,0.778
			c-0.198,0.177-0.462,0.326-0.791,0.447S180.557,105.508,180.124,105.508z M179.987,100.977c-0.293,0-0.534,0.116-0.723,0.349
			s-0.306,0.528-0.352,0.886l0.01,0.024h2.095v-0.122c0-0.335-0.085-0.609-0.257-0.82
			C180.591,101.083,180.332,100.977,179.987,100.977z"/>
		<path fill="#1E1F22" d="M185.783,101.191l-0.508-0.02c-0.231,0-0.424,0.049-0.579,0.146c-0.154,0.098-0.273,0.236-0.358,0.415
			v3.672h-1.187v-5.283h1.084l0.078,0.767c0.134-0.27,0.305-0.482,0.516-0.635c0.209-0.153,0.451-0.229,0.725-0.229
			c0.071,0,0.139,0.006,0.2,0.017s0.119,0.025,0.171,0.042L185.783,101.191z"/>
		<path fill="#1E1F22" d="M188.19,98.838v1.284h0.947v0.879h-0.947v2.92c0,0.218,0.047,0.374,0.142,0.466s0.22,0.139,0.376,0.139
			c0.065,0,0.129-0.006,0.19-0.017s0.12-0.027,0.176-0.046l0.127,0.869c-0.101,0.055-0.222,0.099-0.361,0.129
			s-0.285,0.046-0.435,0.046c-0.437,0-0.778-0.128-1.025-0.383s-0.371-0.657-0.371-1.204v-2.92h-0.806v-0.879h0.806v-1.284H188.19z"
			/>
		<path fill="#1E1F22" d="M192.458,105.508c-0.749,0-1.346-0.245-1.789-0.735c-0.445-0.49-0.667-1.119-0.667-1.887v-0.195
			c0-0.768,0.221-1.405,0.661-1.912c0.441-0.506,0.994-0.758,1.658-0.754c0.713,0,1.259,0.216,1.639,0.647
			c0.379,0.431,0.568,1.01,0.568,1.736v0.698h-3.296l-0.01,0.024c0.02,0.418,0.143,0.761,0.368,1.027
			c0.227,0.266,0.54,0.399,0.94,0.399c0.319,0,0.593-0.039,0.82-0.117s0.447-0.19,0.659-0.337l0.381,0.778
			c-0.198,0.177-0.462,0.326-0.791,0.447S192.891,105.508,192.458,105.508z M192.321,100.977c-0.293,0-0.534,0.116-0.723,0.349
			s-0.306,0.528-0.352,0.886l0.01,0.024h2.095v-0.122c0-0.335-0.085-0.609-0.257-0.82
			C192.925,101.083,192.666,100.977,192.321,100.977z"/>
	</g>
	<g>
		<path fill="#1E1F22" d="M149.91,159.576v-7.109h2.305c0.901,0,1.635,0.282,2.2,0.845c0.564,0.563,0.847,1.288,0.847,2.173v1.079
			c0,0.889-0.282,1.613-0.847,2.173c-0.565,0.56-1.299,0.84-2.2,0.84H149.91z M151.097,153.418v5.205h1.084
			c0.589,0,1.053-0.192,1.389-0.576c0.338-0.384,0.506-0.879,0.506-1.488v-1.088c0-0.602-0.168-1.094-0.506-1.478
			c-0.336-0.384-0.8-0.576-1.389-0.576H151.097z"/>
		<path fill="#1E1F22" d="M157.596,152.999h-1.187v-1.04h1.187V152.999z M157.596,159.576h-1.187v-5.283h1.187V159.576z"/>
		<path fill="#1E1F22" d="M162.103,159.576c-0.042-0.133-0.077-0.264-0.104-0.391c-0.028-0.127-0.047-0.254-0.057-0.381
			c-0.163,0.248-0.377,0.455-0.643,0.623c-0.265,0.167-0.562,0.251-0.891,0.251c-0.55,0-0.973-0.142-1.268-0.425
			c-0.294-0.283-0.441-0.672-0.441-1.167c0-0.511,0.202-0.909,0.605-1.194s0.972-0.427,1.704-0.427h0.923v-0.464
			c0-0.277-0.081-0.493-0.244-0.649s-0.396-0.234-0.698-0.234c-0.271,0-0.485,0.065-0.645,0.195s-0.239,0.298-0.239,0.503h-1.143
			l-0.005-0.029c-0.022-0.417,0.163-0.786,0.56-1.108c0.395-0.322,0.91-0.483,1.545-0.483c0.615,0,1.111,0.156,1.489,0.469
			s0.566,0.762,0.566,1.348v2.349c0,0.218,0.015,0.427,0.044,0.627s0.076,0.396,0.142,0.588H162.103z M160.647,158.726
			c0.3,0,0.569-0.075,0.808-0.225c0.24-0.15,0.398-0.321,0.477-0.513v-0.781h-0.942c-0.345,0-0.615,0.085-0.811,0.256
			s-0.293,0.372-0.293,0.603c0,0.202,0.065,0.362,0.198,0.481C160.215,158.667,160.403,158.726,160.647,158.726z"/>
		<path fill="#1E1F22" d="M169.002,157.11c0,0.771-0.18,1.393-0.539,1.863c-0.36,0.47-0.867,0.706-1.521,0.706
			c-0.329,0-0.614-0.067-0.857-0.2c-0.242-0.133-0.444-0.329-0.607-0.586l-0.117,0.684h-0.996v-7.617h1.187v2.935
			c0.163-0.225,0.358-0.397,0.586-0.518s0.493-0.181,0.796-0.181c0.661,0,1.171,0.257,1.531,0.771
			c0.359,0.514,0.539,1.195,0.539,2.041V157.11z M167.815,157.007c0-0.55-0.095-0.995-0.283-1.333s-0.488-0.508-0.898-0.508
			c-0.264,0-0.484,0.059-0.661,0.176c-0.178,0.117-0.318,0.28-0.423,0.488v2.217c0.101,0.211,0.241,0.375,0.42,0.491
			s0.403,0.173,0.674,0.173c0.41,0,0.708-0.144,0.894-0.432s0.278-0.678,0.278-1.169V157.007z"/>
		<path fill="#1E1F22" d="M172.293,159.678c-0.749,0-1.346-0.245-1.789-0.735c-0.445-0.49-0.667-1.119-0.667-1.887v-0.195
			c0-0.768,0.221-1.405,0.661-1.912c0.441-0.506,0.994-0.758,1.658-0.754c0.713,0,1.259,0.216,1.639,0.647
			c0.379,0.431,0.568,1.01,0.568,1.736v0.698h-3.296l-0.01,0.024c0.02,0.418,0.143,0.761,0.368,1.027
			c0.227,0.266,0.54,0.399,0.94,0.399c0.319,0,0.593-0.039,0.82-0.117s0.447-0.19,0.659-0.337l0.381,0.778
			c-0.198,0.177-0.462,0.326-0.791,0.447S172.726,159.678,172.293,159.678z M172.156,155.147c-0.293,0-0.534,0.116-0.723,0.349
			s-0.306,0.528-0.352,0.886l0.01,0.024h2.095v-0.122c0-0.335-0.085-0.609-0.257-0.82
			C172.76,155.253,172.501,155.147,172.156,155.147z"/>
		<path fill="#1E1F22" d="M176.795,153.008v1.284h0.947v0.879h-0.947v2.92c0,0.218,0.047,0.374,0.142,0.466s0.22,0.139,0.376,0.139
			c0.065,0,0.129-0.006,0.19-0.017s0.12-0.027,0.176-0.046l0.127,0.869c-0.101,0.055-0.222,0.099-0.361,0.129
			s-0.285,0.046-0.435,0.046c-0.437,0-0.778-0.128-1.025-0.383s-0.371-0.657-0.371-1.204v-2.92h-0.806v-0.879h0.806v-1.284H176.795z
			"/>
		<path fill="#1E1F22" d="M181.063,159.678c-0.749,0-1.346-0.245-1.789-0.735c-0.445-0.49-0.667-1.119-0.667-1.887v-0.195
			c0-0.768,0.221-1.405,0.661-1.912c0.441-0.506,0.994-0.758,1.658-0.754c0.713,0,1.259,0.216,1.639,0.647
			c0.379,0.431,0.568,1.01,0.568,1.736v0.698h-3.296l-0.01,0.024c0.02,0.418,0.143,0.761,0.368,1.027
			c0.227,0.266,0.54,0.399,0.94,0.399c0.319,0,0.593-0.039,0.82-0.117s0.447-0.19,0.659-0.337l0.381,0.778
			c-0.198,0.177-0.462,0.326-0.791,0.447S181.495,159.678,181.063,159.678z M180.926,155.147c-0.293,0-0.534,0.116-0.723,0.349
			s-0.306,0.528-0.352,0.886l0.01,0.024h2.095v-0.122c0-0.335-0.085-0.609-0.257-0.82
			C181.529,155.253,181.271,155.147,180.926,155.147z"/>
		<path fill="#1E1F22" d="M187.059,158.14c0-0.182-0.078-0.333-0.234-0.454s-0.447-0.226-0.874-0.317
			c-0.632-0.133-1.109-0.323-1.433-0.569c-0.324-0.246-0.486-0.58-0.486-1.003c0-0.443,0.188-0.82,0.562-1.133
			s0.867-0.469,1.479-0.469c0.645,0,1.156,0.159,1.535,0.476c0.38,0.317,0.562,0.71,0.545,1.179l-0.01,0.029h-1.138
			c0-0.218-0.083-0.405-0.249-0.562s-0.394-0.234-0.684-0.234c-0.286,0-0.505,0.064-0.654,0.193s-0.225,0.286-0.225,0.471
			s0.07,0.333,0.213,0.442c0.141,0.109,0.429,0.206,0.861,0.291c0.664,0.137,1.156,0.33,1.477,0.579
			c0.321,0.249,0.481,0.588,0.481,1.018c0,0.475-0.196,0.861-0.589,1.157c-0.392,0.296-0.908,0.444-1.55,0.444
			c-0.687,0-1.229-0.176-1.626-0.527s-0.586-0.755-0.566-1.211l0.01-0.029h1.104c0.013,0.306,0.124,0.529,0.332,0.669
			s0.462,0.21,0.762,0.21c0.306,0,0.542-0.059,0.708-0.176S187.059,158.339,187.059,158.14z"/>
		<path fill="#1E1F22" d="M193.118,156.626v2.949h-1.187v-7.109h2.627c0.794,0,1.408,0.179,1.841,0.537s0.649,0.869,0.649,1.533
			c0,0.368-0.095,0.685-0.286,0.95c-0.189,0.265-0.468,0.478-0.832,0.637c0.4,0.127,0.688,0.334,0.864,0.623
			s0.264,0.642,0.264,1.062v0.591c0,0.208,0.026,0.412,0.078,0.61s0.14,0.35,0.264,0.454v0.112h-1.221
			c-0.13-0.107-0.214-0.277-0.251-0.508c-0.038-0.231-0.057-0.458-0.057-0.679v-0.571c0-0.365-0.104-0.654-0.313-0.869
			s-0.495-0.322-0.859-0.322H193.118z M193.118,155.674h1.377c0.476,0,0.822-0.091,1.04-0.273s0.327-0.46,0.327-0.835
			c0-0.358-0.107-0.639-0.322-0.842s-0.542-0.305-0.981-0.305h-1.44V155.674z"/>
		<path fill="#1E1F22" d="M199.666,152.999h-1.187v-1.04h1.187V152.999z M199.666,159.576h-1.187v-5.283h1.187V159.576z"/>
		<path fill="#1E1F22" d="M203.963,158.14c0-0.182-0.078-0.333-0.234-0.454s-0.447-0.226-0.874-0.317
			c-0.632-0.133-1.109-0.323-1.433-0.569c-0.324-0.246-0.486-0.58-0.486-1.003c0-0.443,0.188-0.82,0.562-1.133
			s0.867-0.469,1.479-0.469c0.645,0,1.156,0.159,1.535,0.476c0.38,0.317,0.562,0.71,0.545,1.179l-0.01,0.029h-1.138
			c0-0.218-0.083-0.405-0.249-0.562s-0.394-0.234-0.684-0.234c-0.286,0-0.505,0.064-0.654,0.193s-0.225,0.286-0.225,0.471
			s0.07,0.333,0.213,0.442c0.141,0.109,0.429,0.206,0.861,0.291c0.664,0.137,1.156,0.33,1.477,0.579
			c0.321,0.249,0.481,0.588,0.481,1.018c0,0.475-0.196,0.861-0.589,1.157c-0.392,0.296-0.908,0.444-1.55,0.444
			c-0.687,0-1.229-0.176-1.626-0.527s-0.586-0.755-0.566-1.211l0.01-0.029h1.104c0.013,0.306,0.124,0.529,0.332,0.669
			s0.462,0.21,0.762,0.21c0.306,0,0.542-0.059,0.708-0.176S203.963,158.339,203.963,158.14z"/>
		<path fill="#1E1F22" d="M207.459,152.999h-1.187v-1.04h1.187V152.999z M207.459,159.576h-1.187v-5.283h1.187V159.576z"/>
		<path fill="#1E1F22" d="M210.506,157.266h-0.532v2.31h-1.182v-7.617h1.182v4.355h0.493l1.333-2.021h1.396l-1.743,2.402
			l2.002,2.881h-1.377L210.506,157.266z"/>
		<path fill="#1E1F22" d="M213.802,156.885c0-0.785,0.215-1.429,0.645-1.934c0.437-0.504,1.027-0.757,1.772-0.757
			c0.759,0,1.353,0.252,1.782,0.757c0.433,0.501,0.649,1.146,0.649,1.934v0.103c0,0.794-0.217,1.442-0.649,1.943
			c-0.43,0.498-1.021,0.747-1.772,0.747c-0.755,0-1.35-0.25-1.782-0.752c-0.43-0.501-0.645-1.147-0.645-1.938V156.885z
			 M214.988,156.985c0,0.514,0.101,0.933,0.303,1.258c0.198,0.322,0.511,0.483,0.938,0.483c0.413,0,0.723-0.161,0.928-0.483
			c0.208-0.325,0.313-0.744,0.313-1.258v-0.103c0-0.504-0.104-0.918-0.313-1.243c-0.205-0.329-0.518-0.493-0.938-0.493
			c-0.413,0-0.723,0.164-0.928,0.493c-0.202,0.328-0.303,0.743-0.303,1.243V156.985z"/>
	</g>
	<g>
		<path d="M288.024,63.392h-6.188l-1.392,3.767h-1.15l5.131-13.508h1.048l5.093,13.508h-1.15L288.024,63.392z M282.207,62.399h5.455
			l-2.69-7.311h-0.056L282.207,62.399z"/>
		<path d="M293.312,57.121l0.103,1.753c0.321-0.618,0.757-1.096,1.304-1.433s1.195-0.506,1.943-0.506
			c1.088,0,1.917,0.333,2.486,0.997c0.568,0.665,0.854,1.703,0.854,3.113v6.113h-1.113v-6.116c0-1.153-0.215-1.968-0.645-2.445
			s-1.041-0.716-1.832-0.716c-0.779,0-1.416,0.206-1.906,0.618c-0.492,0.412-0.847,0.959-1.063,1.641v7.019h-1.113V57.121H293.312z"
			/>
		<path d="M309.26,67.159c-0.074-0.34-0.127-0.634-0.157-0.881c-0.031-0.248-0.047-0.498-0.047-0.752
			c-0.371,0.525-0.866,0.962-1.484,1.309c-0.619,0.346-1.314,0.52-2.088,0.52c-0.977,0-1.736-0.26-2.277-0.779
			s-0.812-1.216-0.812-2.088c0-0.928,0.4-1.67,1.202-2.227c0.801-0.557,1.881-0.835,3.242-0.835h2.217v-1.243
			c0-0.718-0.23-1.28-0.691-1.688s-1.105-0.612-1.934-0.612c-0.773,0-1.416,0.195-1.926,0.584c-0.51,0.391-0.766,0.866-0.766,1.43
			l-1.02-0.01l-0.02-0.056c-0.037-0.748,0.305-1.418,1.025-2.009c0.721-0.59,1.638-0.886,2.751-0.886
			c1.106,0,1.997,0.281,2.672,0.845c0.674,0.563,1.011,1.369,1.011,2.421v4.936c0,0.353,0.021,0.696,0.061,1.03
			c0.041,0.334,0.107,0.664,0.199,0.992H309.26z M305.614,66.37c0.797,0,1.502-0.187,2.115-0.561
			c0.611-0.374,1.054-0.853,1.326-1.434v-2.097h-2.236c-1.008,0-1.813,0.215-2.416,0.645c-0.604,0.431-0.904,0.964-0.904,1.601
			c0,0.544,0.187,0.988,0.561,1.331C304.435,66.199,304.952,66.37,305.614,66.37z"/>
		<path d="M314.362,67.159h-1.104V52.686h1.104V67.159z"/>
		<path d="M320.281,64.44l0.353,1.197h0.056l3.034-8.517h1.242l-4.359,11.644c-0.26,0.68-0.598,1.258-1.012,1.734
			s-1.021,0.715-1.818,0.715c-0.13,0-0.287-0.015-0.473-0.042c-0.186-0.028-0.322-0.058-0.408-0.089l0.129-0.928
			c0.074,0.013,0.193,0.026,0.357,0.042s0.283,0.023,0.357,0.023c0.482,0,0.869-0.172,1.16-0.515
			c0.29-0.344,0.537-0.784,0.742-1.322l0.528-1.354l-3.878-9.908h1.234L320.281,64.44z"/>
		<path d="M332.741,64.602c0-0.469-0.193-0.879-0.58-1.23s-1.084-0.639-2.092-0.861c-1.201-0.26-2.086-0.603-2.658-1.029
			s-0.858-1.029-0.858-1.809c0-0.768,0.323-1.415,0.97-1.944c0.646-0.528,1.501-0.793,2.564-0.793c1.133,0,2.029,0.28,2.691,0.84
			c0.661,0.56,0.977,1.26,0.945,2.101l-0.018,0.057h-1.03c0-0.551-0.233-1.03-0.7-1.438s-1.097-0.612-1.889-0.612
			c-0.811,0-1.418,0.174-1.822,0.521c-0.405,0.348-0.607,0.756-0.607,1.223c0,0.462,0.174,0.844,0.523,1.146
			c0.35,0.301,1.047,0.565,2.092,0.794c1.193,0.267,2.088,0.631,2.682,1.093c0.594,0.463,0.891,1.091,0.891,1.885
			c0,0.838-0.338,1.516-1.016,2.034c-0.678,0.518-1.572,0.777-2.686,0.777c-1.219,0-2.176-0.291-2.871-0.873
			c-0.697-0.581-1.025-1.273-0.988-2.078l0.018-0.055h1.021c0.043,0.72,0.338,1.243,0.885,1.569
			c0.549,0.327,1.193,0.489,1.936,0.489c0.803,0,1.438-0.176,1.901-0.527S332.741,65.102,332.741,64.602z"/>
		<path d="M340.172,67.354c-1.256,0-2.3-0.465-3.131-1.393c-0.832-0.928-1.248-2.103-1.248-3.525v-0.51
			c0-1.435,0.413-2.625,1.238-3.572c0.826-0.945,1.826-1.419,3.001-1.419c1.23,0,2.199,0.39,2.904,1.169s1.058,1.818,1.058,3.117
			v0.946h-7.088v0.269c0,1.129,0.3,2.073,0.899,2.833c0.6,0.759,1.389,1.138,2.366,1.138c0.692,0,1.283-0.096,1.772-0.287
			c0.488-0.191,0.905-0.467,1.252-0.826l0.473,0.762c-0.377,0.397-0.854,0.713-1.433,0.947
			C341.657,67.237,340.97,67.354,340.172,67.354z M340.032,57.881c-0.822,0-1.512,0.313-2.068,0.939s-0.881,1.41-0.975,2.354
			l0.02,0.046h5.881v-0.277c0-0.87-0.256-1.598-0.77-2.184S340.911,57.881,340.032,57.881z"/>
		<path d="M284.563,87.676l0.27,0.899h0.055l0.27-0.899l4.055-11.226h1.205l-5.037,13.508h-1.049l-5.037-13.508h1.206
			L284.563,87.676z"/>
		<path d="M295.538,90.154c-1.256,0-2.299-0.465-3.131-1.393s-1.248-2.103-1.248-3.525v-0.51c0-1.435,0.414-2.625,1.238-3.572
			c0.826-0.945,1.826-1.419,3.002-1.419c1.23,0,2.199,0.39,2.904,1.169s1.057,1.818,1.057,3.117v0.946h-7.088v0.269
			c0,1.129,0.301,2.073,0.9,2.833c0.6,0.759,1.389,1.138,2.365,1.138c0.693,0,1.283-0.096,1.772-0.287
			c0.488-0.191,0.905-0.467,1.253-0.826l0.473,0.762c-0.377,0.397-0.855,0.713-1.434,0.947S296.337,90.154,295.538,90.154z
			 M295.399,80.681c-0.822,0-1.512,0.313-2.068,0.939s-0.882,1.41-0.975,2.354l0.019,0.046h5.882v-0.277
			c0-0.87-0.257-1.598-0.77-2.184C296.974,80.974,296.277,80.681,295.399,80.681z"/>
		<path d="M306.18,80.876l-0.825-0.057c-0.699,0-1.273,0.197-1.722,0.59s-0.769,0.932-0.96,1.619v6.93h-1.113V79.92h0.975
			l0.139,1.67v0.111c0.291-0.618,0.68-1.101,1.169-1.447c0.488-0.347,1.069-0.52,1.744-0.52c0.142,0,0.28,0.011,0.413,0.032
			c0.133,0.022,0.242,0.045,0.329,0.07L306.18,80.876z"/>
		<path d="M314.381,89.958c-0.074-0.34-0.127-0.634-0.157-0.881c-0.031-0.248-0.047-0.498-0.047-0.752
			c-0.371,0.525-0.866,0.962-1.484,1.309c-0.619,0.346-1.314,0.52-2.088,0.52c-0.977,0-1.736-0.26-2.277-0.779
			s-0.812-1.216-0.812-2.088c0-0.928,0.4-1.67,1.202-2.227c0.801-0.557,1.881-0.835,3.242-0.835h2.217v-1.243
			c0-0.718-0.23-1.28-0.691-1.688s-1.105-0.612-1.934-0.612c-0.773,0-1.416,0.195-1.926,0.584c-0.51,0.391-0.766,0.866-0.766,1.43
			l-1.02-0.01l-0.02-0.056c-0.037-0.748,0.305-1.418,1.025-2.009c0.721-0.59,1.638-0.886,2.751-0.886
			c1.106,0,1.997,0.281,2.672,0.845c0.674,0.563,1.011,1.369,1.011,2.421v4.936c0,0.353,0.021,0.696,0.061,1.03
			c0.041,0.334,0.107,0.664,0.199,0.992H314.381z M310.735,89.169c0.797,0,1.502-0.187,2.115-0.561
			c0.611-0.374,1.054-0.853,1.326-1.434v-2.097h-2.236c-1.008,0-1.813,0.215-2.416,0.645c-0.604,0.431-0.904,0.964-0.904,1.601
			c0,0.544,0.187,0.988,0.561,1.331C309.556,88.999,310.073,89.169,310.735,89.169z M310.271,77.712h-1.613v-1.457h1.613V77.712z
			 M314.622,77.712h-1.605v-1.457h1.605V77.712z"/>
		<path d="M319.224,79.92l0.102,1.753c0.322-0.618,0.757-1.096,1.304-1.433c0.548-0.337,1.195-0.506,1.944-0.506
			c1.088,0,1.916,0.333,2.486,0.997c0.568,0.665,0.854,1.703,0.854,3.113v6.113H324.8v-6.116c0-1.153-0.215-1.968-0.646-2.445
			c-0.43-0.478-1.04-0.716-1.832-0.716c-0.779,0-1.415,0.206-1.906,0.618c-0.492,0.412-0.847,0.959-1.063,1.641v7.019h-1.113V79.92
			H319.224z"/>
		<path d="M328.38,85.023c0-1.602,0.339-2.884,1.017-3.846c0.677-0.961,1.622-1.442,2.834-1.442c0.698,0,1.305,0.148,1.818,0.445
			c0.513,0.297,0.94,0.718,1.28,1.262v-5.956h1.104v14.473h-0.982l-0.094-1.457c-0.334,0.532-0.764,0.94-1.289,1.225
			c-0.525,0.285-1.145,0.428-1.855,0.428c-1.2,0-2.139-0.447-2.815-1.341c-0.678-0.894-1.017-2.093-1.017-3.595V85.023z
			 M329.493,85.219c0,1.218,0.243,2.187,0.729,2.907c0.486,0.721,1.217,1.08,2.194,1.08c0.718,0,1.315-0.161,1.795-0.484
			c0.479-0.322,0.853-0.77,1.118-1.342v-4.733c-0.254-0.584-0.612-1.058-1.076-1.421s-1.07-0.545-1.818-0.545
			c-0.978,0-1.712,0.402-2.203,1.207c-0.492,0.804-0.738,1.85-0.738,3.135V85.219z"/>
		<path d="M343.159,90.154c-1.256,0-2.299-0.465-3.131-1.393s-1.248-2.103-1.248-3.525v-0.51c0-1.435,0.413-2.625,1.238-3.572
			c0.826-0.945,1.826-1.419,3.002-1.419c1.23,0,2.198,0.39,2.903,1.169s1.058,1.818,1.058,3.117v0.946h-7.088v0.269
			c0,1.129,0.3,2.073,0.9,2.833c0.6,0.759,1.388,1.138,2.365,1.138c0.692,0,1.283-0.096,1.771-0.287s0.906-0.467,1.253-0.826
			l0.474,0.762c-0.378,0.397-0.855,0.713-1.434,0.947S343.957,90.154,343.159,90.154z M343.021,80.681
			c-0.823,0-1.513,0.313-2.069,0.939s-0.882,1.41-0.974,2.354l0.018,0.046h5.883v-0.277c0-0.87-0.258-1.598-0.771-2.184
			C344.594,80.974,343.897,80.681,343.021,80.681z"/>
		<path d="M353.8,80.876l-0.825-0.057c-0.699,0-1.272,0.197-1.722,0.59c-0.447,0.393-0.768,0.932-0.959,1.619v6.93h-1.113V79.92
			h0.974l0.14,1.67v0.111c0.29-0.618,0.68-1.101,1.168-1.447s1.07-0.52,1.744-0.52c0.143,0,0.28,0.011,0.414,0.032
			c0.133,0.022,0.242,0.045,0.328,0.07L353.8,80.876z"/>
		<path d="M362.224,88.316c-0.321,0.588-0.754,1.041-1.299,1.359c-0.544,0.318-1.188,0.479-1.93,0.479
			c-1.057,0-1.887-0.359-2.486-1.076c-0.6-0.718-0.899-1.831-0.899-3.34V79.92h1.113v5.848c0,1.227,0.209,2.106,0.626,2.64
			c0.418,0.533,1.01,0.799,1.777,0.799c0.84,0,1.512-0.188,2.013-0.566s0.851-0.898,1.048-1.562V79.92h1.113v10.038h-0.982
			L362.224,88.316z"/>
		<path d="M367.206,79.92l0.102,1.753c0.322-0.618,0.757-1.096,1.304-1.433c0.548-0.337,1.195-0.506,1.944-0.506
			c1.088,0,1.916,0.333,2.486,0.997c0.568,0.665,0.854,1.703,0.854,3.113v6.113h-1.113v-6.116c0-1.153-0.215-1.968-0.646-2.445
			c-0.43-0.478-1.04-0.716-1.832-0.716c-0.779,0-1.415,0.206-1.906,0.618c-0.492,0.412-0.847,0.959-1.063,1.641v7.019h-1.113V79.92
			H367.206z"/>
		<path d="M376.362,85.023c0-1.602,0.342-2.884,1.025-3.846c0.684-0.961,1.635-1.442,2.854-1.442c0.711,0,1.326,0.156,1.846,0.469
			s0.949,0.753,1.289,1.321l0.131-1.604h0.938v9.908c0,1.293-0.357,2.313-1.072,3.062s-1.709,1.123-2.982,1.123
			c-0.482,0-0.996-0.06-1.541-0.177c-0.544-0.117-1.02-0.278-1.428-0.482l0.287-0.937c0.396,0.197,0.813,0.348,1.252,0.449
			c0.439,0.103,0.91,0.153,1.41,0.153c0.978,0,1.715-0.281,2.213-0.845c0.498-0.563,0.748-1.345,0.748-2.347v-1.262
			c-0.34,0.507-0.771,0.898-1.291,1.174c-0.52,0.274-1.125,0.413-1.818,0.413c-1.205,0-2.15-0.449-2.834-1.346
			s-1.025-2.094-1.025-3.59V85.023z M377.476,85.219c0,1.211,0.248,2.179,0.742,2.902c0.495,0.724,1.23,1.085,2.209,1.085
			c0.717,0,1.315-0.165,1.795-0.496c0.479-0.331,0.85-0.787,1.109-1.368v-4.657c-0.242-0.587-0.596-1.067-1.063-1.442
			c-0.467-0.374-1.075-0.562-1.823-0.562c-0.977,0-1.716,0.404-2.217,1.211c-0.501,0.808-0.752,1.852-0.752,3.131V85.219z"/>
	</g>
	<g>
		<path fill="none" stroke="#1E1F22" stroke-width="2" stroke-miterlimit="10" d="M338.666,217.648
			c0.223-27.636-33.037-36.935-61.703-37.167"/>
		<polygon fill="#1E1F22" points="268.119,180.624 285.857,174.19 285.807,180.553 285.754,186.915 		"/>
	</g>
	<g>
		<path fill="none" stroke="#1E1F22" stroke-width="2" stroke-miterlimit="10" d="M341.999,98.191
			c0.223,27.637-33.037,36.936-61.703,37.167"/>
		<polygon fill="#1E1F22" points="271.452,135.215 289.19,141.648 289.14,135.287 289.087,128.924 		"/>
	</g>
</g>
</svg>
